<?xml version="1.0" standalone="no"?>
<!DOCTYPE svg PUBLIC "-//W3C//DTD SVG 20010904//EN"
 "http://www.w3.org/TR/2001/REC-SVG-20010904/DTD/svg10.dtd">
<svg version="1.0" xmlns="http://www.w3.org/2000/svg"
 width="200.000000pt" height="200.000000pt" viewBox="0 0 200.000000 200.000000"
 preserveAspectRatio="xMidYMid meet">
<metadata>
Created by potrace 1.16, written by Peter Selinger 2001-2019
</metadata>
<g transform="translate(0.000000,200.000000) scale(0.004000,-0.004000)"
fill="#000000" stroke="none">
<path d="M24165 38729 c-1923 -126 -3676 -599 -5340 -1439 -1603 -810 -3007
-1901 -4197 -3262 -1079 -1232 -1945 -2685 -2520 -4223 -793 -2123 -1046
-4431 -732 -6700 353 -2558 1431 -4967 3112 -6960 667 -789 1457 -1535 2282
-2151 1641 -1226 3507 -2063 5495 -2463 863 -174 1634 -255 2545 -268 1134
-15 2207 99 3315 355 l120 27 3 689 2 688 -22 -6 c-102 -28 -372 -94 -558
-135 -948 -210 -1891 -304 -2880 -287 -223 3 -425 8 -450 11 -25 2 -121 9
-215 15 -1718 111 -3471 619 -5010 1451 -1741 941 -3234 2282 -4362 3919
-1285 1864 -2048 4107 -2159 6340 -3 69 -7 145 -9 170 -6 65 -6 923 -1 1000 3
36 8 124 11 195 12 266 49 655 91 965 237 1767 843 3433 1802 4960 531 845
1219 1683 1947 2374 1830 1736 4079 2858 6545 3265 135 22 263 42 285 43 l40
3 3 -6290 2 -6290 600 -600 600 -600 0 7608 0 7607 -112 -1 c-62 -1 -167 -5
-233 -10z"/>
<path d="M25720 38069 l0 -665 278 -23 c844 -70 1617 -210 2409 -437 3604
-1031 6576 -3672 8038 -7144 522 -1239 842 -2585 935 -3940 32 -472 34 -1245
4 -1653 -28 -384 -58 -675 -100 -962 -323 -2242 -1242 -4330 -2680 -6091 -472
-578 -1073 -1186 -1639 -1660 -559 -467 -1139 -875 -1752 -1230 -235 -136
-451 -253 -457 -246 -3 3 -6 2469 -6 5480 l0 5475 34 61 c18 34 655 1140 1415
2459 759 1319 1381 2402 1381 2408 0 5 -244 9 -634 9 -567 0 -635 -2 -647 -16
-7 -9 -650 -1115 -1428 -2457 l-1416 -2442 -3 -6492 c-2 -5674 0 -6493 12
-6493 25 0 318 107 594 216 1875 746 3562 1896 4960 3384 1341 1428 2367 3135
2997 4990 404 1190 632 2381 707 3695 27 478 15 1292 -28 1815 -255 3168
-1586 6120 -3795 8416 -1804 1876 -4079 3196 -6579 3819 -812 202 -1702 339
-2472 381 l-128 7 0 -664z"/>
<path d="M16400 25008 l0 -4903 428 430 c235 236 1149 1153 2031 2037 l1605
1608 240 -243 c787 -793 2998 -3020 3368 -3392 l438 -440 0 851 0 851 -1726
1744 c-949 959 -1860 1879 -2025 2044 l-299 300 -1423 -1423 c-782 -782 -1425
-1422 -1429 -1422 -5 0 -9 1542 -10 3428 l-3 3427 -597 3 -598 2 0 -4902z"/>
<path d="M26537 29903 c-7 -12 2130 -3698 2144 -3698 18 0 690 1167 686 1191
-2 11 -329 581 -726 1267 l-723 1247 -689 0 c-378 0 -690 -3 -692 -7z"/>
</g>
</svg>
